<?xml version="1.0" encoding="UTF-8"?>
<svg id="Layer_1" data-name="Layer 1" xmlns="http://www.w3.org/2000/svg" viewBox="0 0 498.73 363.54">
  <path d="M133.05.15c-2.23,3.84-4.41,7.35-6.36,10.99-15.82,29.62-28.92,60.53-43.08,90.94C57.35,158.45,34.6,216.61,0,269c.22.07.79.27,1.37.45,22.53,6.99,45.09,13.85,67.54,21.09,4.03,1.3,6.23.3,8.38-2.81,3.9-5.65,6.73-11.85,9.34-18.14,13.26-31.97,23.15-65.08,33.12-98.16,1.09-3.62,2.18-7.23,3.63-12.02.69,2.56,1.06,3.82,1.37,5.1,8.48,35.74,17.43,71.36,28.11,106.51,4.97,16.36,9.96,32.74,17.65,48.12,2.29,4.58,5.12,8.19,10.44,9.91,30.65,9.93,61.2,20.17,91.82,30.19,4.44,1.45,8.73,3.61,13.93,3.98-12.56-20.24-22.12-41.44-32.06-62.88C210.38,201.69,170.18,101.81,133.05.15ZM245.6,331.15c-18.06-7.02-36.71-12.3-55.08-18.39-2.51-.83-3.8-2.13-4.75-4.24-7.07-15.75-12.01-32.26-17.02-48.73-8.71-28.61-15.87-57.64-23-86.68-1.53-6.25-2.08-12.91-4.63-18.7-4.11-9.33-9.28-13.35-22.05-12.19-5.64.51-12.34,7.46-14.36,14.43-10.75,37.23-21.78,74.36-36.8,110.17-1.21,2.89-2.18,3.41-5.01,2.49-10.7-3.47-21.44-6.86-32.26-9.96-2.75-.79-1.57-1.84-.88-3.01,11.54-19.45,21.08-39.93,30.89-60.25,12.73-26.36,24.81-53.04,36.63-79.83,7.41-16.79,15.31-33.36,23.2-50.35,2.47-7.06,6.22-13.08,9.43-20.36,37.12,96.72,75.33,192.08,118.62,285.62-1.04,0-2.11.28-2.94-.04Z" style="fill: #020202; stroke-width: 0px;"/>
  <path d="M498.39,287.37c-6.74-6.53-11.93-14.07-16.83-21.81-16.78-26.55-28.73-55.39-39.82-84.62-16.33-43.03-29.3-87.22-44.97-130.47-5.94-16.4-12.04-32.75-21.52-47.57-1.49-2.33-2.75-3.13-5.58-1.87-3.47,1.53-7.24,2.44-10.95,3.35-32.19,7.92-64.99,10.95-98.01,11.45-28.69.43-57.26-1.38-85.25-8.52-7.47-1.91-14.73-4.52-22.83-7.29,6.61,18.07,12.75,35.24,19.17,52.31,31.34,83.32,63.95,166.13,100.92,247.15,9.31,20.4,18.88,40.68,30.67,59.84,2.56,4.17,5.15,4.89,9.61,3.72,22.35-5.84,44.72-11.62,66.64-18.89,41.89-13.91,83.9-27.64,119.09-56.12,0-.25,0-.75-.35-.65ZM468.89,286.96c-9.6,6.04-19.68,11.25-30.09,15.73-22.87,9.84-46.23,18.35-70.06,25.59-16.63,5.05-33.3,9.96-50.16,14.28-3.34.86-4.07-.32-5.08-2.2-4.79-8.96-9.67-17.89-14.11-27.02-5.35-11.02-10.35-22.2-15.38-33.37-8.85-19.67-17.29-39.52-25.67-59.39-11.57-27.44-22.64-55.08-33.75-82.7-14.36-35.72-27.81-71.77-41.48-107.75-.17-.44-.21-.92-.45-1.99,6.72.81,13.26,1.09,19.54,2.54,4.21.97,8.49,1,12.61,1.36,21.86,1.91,43.84,1.57,65.76,1.12,12.28-.25,24.59-1.41,36.78-2.98,14.61-1.89,29.3-3.56,43.56-7.53,2.98-.83,4.52-.26,5.93,2.8,8.2,17.84,14.45,36.4,20.88,54.91,1.33,3.84,2.67,7.67,4.03,11.91,8,23.91,15.87,47.45,23.99,70.91,7.99,23.1,16.73,45.89,26.91,68.14,8.19,17.9,17.15,35.33,28.28,51.58,2.19,3.2-.88,3.34-2.04,4.07Z" style="fill: #020202; stroke-width: 0px;"/>
</svg>