<svg version="1.1" id="Layer_1" xmlns="http://www.w3.org/2000/svg" xmlns:xlink="http://www.w3.org/1999/xlink" x="0px" y="0px"
	 width="100%" viewBox="0 0 496 496" enable-background="new 0 0 496 496" xml:space="preserve">
<path fill="#000000" opacity="1.000000" stroke="none" 
	d="
M497.000000,472.571533 
	C494.593536,472.025421 492.065216,472.368103 489.582458,472.367523 
	C435.586090,472.355499 381.589752,472.365051 327.593384,472.366638 
	C319.631287,472.366852 319.616150,472.357971 319.615875,464.636261 
	C319.614685,427.805420 319.627289,390.974579 319.622559,354.143738 
	C319.621674,347.343872 319.595215,347.326355 312.729950,347.325073 
	C271.232758,347.317352 229.735199,347.397186 188.238815,347.211945 
	C183.304581,347.189941 182.096771,348.795837 182.117767,353.496490 
	C182.284454,390.826538 182.216736,428.157654 182.210449,465.488434 
	C182.209290,472.346466 182.187256,472.358154 175.317566,472.359589 
	C119.654663,472.371216 63.991756,472.382538 8.328856,472.366364 
	C6.549616,472.365845 4.669016,472.787018 3.015831,471.683929 
	C2.348955,469.676971 3.935263,468.542664 4.775212,467.230194 
	C31.265593,425.837128 57.806877,384.476654 84.323586,343.100403 
	C129.358932,272.828094 174.380615,202.547058 219.414093,132.273544 
	C226.155487,121.753777 232.828430,111.187660 239.748566,100.786400 
	C241.903275,97.547798 241.925598,95.021896 239.754379,91.754646 
	C228.781754,75.243088 218.015747,58.594234 207.173615,41.995918 
	C204.116653,37.315987 204.443756,36.876289 210.960983,32.118477 
	C215.093887,29.101288 216.223541,32.561508 217.739609,34.891888 
	C227.552277,49.975151 237.268051,65.121429 247.025330,80.240761 
	C248.008759,81.764641 249.057159,83.246574 250.729401,85.712288 
	C262.325134,67.061684 273.566925,48.980362 284.630310,31.186005 
	C285.585754,31.324177 285.771484,31.302662 285.903107,31.376966 
	C295.354004,36.712524 295.507416,37.342087 289.897522,46.290016 
	C280.517120,61.252033 271.271820,76.300598 261.716339,91.149689 
	C259.363434,94.806046 259.618774,97.475044 261.904236,101.034241 
	C330.235107,207.446732 398.462616,313.925598 466.716797,420.387360 
	C476.605072,435.810944 486.545685,451.201050 496.731018,466.803314 
	C497.000000,468.714355 497.000000,470.428711 497.000000,472.571533 
M241.803604,141.175079 
	C232.917084,155.010956 224.017502,168.838470 215.146683,182.684402 
	C194.714905,214.575073 174.308823,246.482224 153.869873,278.368286 
	C138.176025,302.851654 122.439400,327.307617 106.737442,351.785797 
	C90.763832,376.687500 74.729530,401.550903 58.894512,426.540497 
	C54.060875,434.168579 48.655964,441.485596 44.639771,449.604126 
	C46.683922,451.180878 48.588730,450.611694 50.344151,450.613800 
	C84.671829,450.655121 119.000214,450.541016 153.326599,450.755493 
	C158.460144,450.787537 159.787949,449.220856 159.756638,444.220978 
	C159.551041,411.394287 159.641617,378.565674 159.655029,345.737701 
	C159.660431,332.516571 167.519257,324.675232 180.808395,324.670044 
	C227.300812,324.651917 273.793243,324.650757 320.285645,324.665771 
	C333.420013,324.670013 341.339172,332.648254 341.344635,345.844330 
	C341.358307,378.838959 341.435791,411.834045 341.252625,444.827637 
	C341.226837,449.468353 342.613678,450.762726 347.199646,450.740051 
	C382.026459,450.567963 416.854523,450.658295 451.682098,450.606506 
	C453.365265,450.604004 455.328369,451.371246 457.106750,449.249023 
	C388.488373,342.104462 319.833435,234.902740 250.758911,127.045914 
	C247.497086,132.196487 244.847839,136.379791 241.803604,141.175079 
z"/>
</svg>