<?xml version="1.0" encoding="UTF-8"?>
<svg id="Layer_1" data-name="Layer 1" xmlns="http://www.w3.org/2000/svg" viewBox="0 0 496.5 441.01">
  <path d="M76.53,440.9H0c1.36-2.16,2.28-3.66,3.23-5.14,78.23-122.06,156.44-244.13,234.77-366.12,2.23-3.48,2.11-5.75-.12-9.08-11.09-16.58-21.94-33.33-32.77-50.09-.85-1.31-3.39-2.76-1.48-4.54,2.38-2.23,4.56-5.09,7.85-5.89,1.48-.36,1.98,1.98,2.75,3.17,11.21,17.3,22.36,34.64,33.96,52.66,11.65-18.82,23.05-37.22,34.44-55.61.45.16.76.19.96.35q8.24,6.49,2.69,15.34c-9.44,15.08-18.79,30.21-28.37,45.19-1.79,2.79-1.76,4.66.03,7.46,73.25,114.19,146.41,228.43,219.58,342.68,6.15,9.6,12.3,19.21,18.97,29.62h-5.12c-56.32,0-112.64-.06-168.96.11-4.27.01-5.06-1.15-5.04-5.19.17-38.49.05-76.98.18-115.47.01-3.61-.68-4.73-4.55-4.72-43.16.16-86.31.16-129.47,0-3.86-.01-4.59,1.08-4.58,4.71.14,38.49.01,76.98.19,115.47.02,4.13-.92,5.21-5.13,5.19-32.33-.2-64.65-.11-97.48-.11Z" style="fill: #010101; stroke-width: 0px;"/>
</svg>