<?xml version="1.0" encoding="UTF-8"?>
<svg id="Layer_1" data-name="Layer 1" xmlns="http://www.w3.org/2000/svg" viewBox="0 0 497.03 362.7">
  <path d="M486.5,296.72c-53.9,29.04-125.57,64.77-183.72,61.46C241.44,244.12,197.93,121.25,152.83.11c354.43,43.6,158.55-77.53,327.54,263.4,14.9,27,25.55,19.12,6.12,33.21ZM111.39,197.54c-13.04,29.57-15.8,73.52-40.8,92.98-23.73-7.45-47.46-14.87-70.59-22.11C54,183.79,83.58,87.08,132.6,0c46.56,122.81,93.29,245.42,152.47,362.7-34.51-11.1-69.92-23.16-104.57-34.35-40.65-24.07-46.61-225.69-69.11-130.81Z" style="fill: #010101; stroke-width: 0px;"/>
</svg>